<svg width="16" height="18" viewBox="0 0 16 18" fill="none" xmlns="http://www.w3.org/2000/svg">
<path d="M11.1107 8.18167V4.58167C11.1107 3.78602 10.7946 3.02295 10.2321 2.46035C9.66943 1.89774 8.90639 1.58167 8.11071 1.58167C7.31511 1.58167 6.55199 1.89774 5.98941 2.46035C5.4268 3.02295 5.11073 3.78602 5.11073 4.58167V8.18167M14.1955 6.58727L15.2059 16.1873C15.2619 16.7193 14.8459 17.1817 14.3107 17.1817H1.91073C1.7845 17.1818 1.65964 17.1553 1.54429 17.1041C1.42893 17.0529 1.32565 16.9779 1.24115 16.8841C1.15665 16.7903 1.09282 16.6798 1.05381 16.5597C1.0148 16.4397 1.00149 16.3128 1.01473 16.1873L2.02593 6.58727C2.04926 6.36611 2.15363 6.16143 2.31893 6.01267C2.48423 5.86391 2.69875 5.78163 2.92113 5.78167H13.3003C13.7611 5.78167 14.1475 6.12967 14.1955 6.58727ZM5.41073 8.18167C5.41073 8.26127 5.37912 8.3375 5.32286 8.39382C5.2666 8.45006 5.1903 8.48167 5.11073 8.48167C5.03116 8.48167 4.95486 8.45006 4.89859 8.39382C4.84234 8.3375 4.81073 8.26127 4.81073 8.18167C4.81073 8.10207 4.84234 8.02583 4.89859 7.96951C4.95486 7.91327 5.03116 7.88167 5.11073 7.88167C5.1903 7.88167 5.2666 7.91327 5.32286 7.96951C5.37912 8.02583 5.41073 8.10207 5.41073 8.18167ZM11.4107 8.18167C11.4107 8.26127 11.3791 8.3375 11.3229 8.39382C11.2666 8.45006 11.1903 8.48167 11.1107 8.48167C11.0312 8.48167 10.9549 8.45006 10.8986 8.39382C10.8423 8.3375 10.8107 8.26127 10.8107 8.18167C10.8107 8.10207 10.8423 8.02583 10.8986 7.96951C10.9549 7.91327 11.0312 7.88167 11.1107 7.88167C11.1903 7.88167 11.2666 7.91327 11.3229 7.96951C11.3791 8.02583 11.4107 8.10207 11.4107 8.18167Z" stroke="white" stroke-width="1.44" stroke-linecap="round" stroke-linejoin="round"/>
</svg>
