<svg width="21" height="21" viewBox="0 0 21 21" fill="none" xmlns="http://www.w3.org/2000/svg">
<path d="M10.6553 0.177002C16.1783 0.177002 20.6553 4.654 20.6553 10.177C20.6553 15.7 16.1783 20.177 10.6553 20.177C5.13227 20.177 0.655273 15.7 0.655273 10.177C0.655273 4.654 5.13227 0.177002 10.6553 0.177002ZM14.6553 9.177H6.65527C6.39006 9.177 6.1357 9.28236 5.94817 9.4699C5.76063 9.65743 5.65527 9.91179 5.65527 10.177C5.65527 10.4422 5.76063 10.6966 5.94817 10.8841C6.1357 11.0716 6.39006 11.177 6.65527 11.177H14.6553C14.9205 11.177 15.1748 11.0716 15.3624 10.8841C15.5499 10.6966 15.6553 10.4422 15.6553 10.177C15.6553 9.91179 15.5499 9.65743 15.3624 9.4699C15.1748 9.28236 14.9205 9.177 14.6553 9.177Z" fill="#F0BE4B"/>
</svg>
